<svg width="233" height="395" viewBox="0 0 233 395" fill="none" xmlns="http://www.w3.org/2000/svg">
<g clip-path="url(#clip0_2_115)">
<path d="M15.4092 0L101.22 50.5036C103.663 51.9412 105.163 54.5639 105.163 57.3982V185.174H81.071V70.9439C81.071 68.0058 79.4604 65.3041 76.8759 63.9067L-1.59676 21.4778L15.4092 0Z" fill="#D9D9D9"/>
<path d="M15.4092 0L101.22 50.5036C103.663 51.9412 105.163 54.5639 105.163 57.3982V185.174H81.071V70.9439C81.071 68.0058 79.4604 65.3041 76.8759 63.9067L-1.59676 21.4778L15.4092 0Z" fill="url(#paint0_linear_2_115)" fill-opacity="0.2"/>
<path d="M15.4092 0L101.22 50.5036C103.663 51.9412 105.163 54.5639 105.163 57.3982V185.174H81.071V70.9439C81.071 68.0058 79.4604 65.3041 76.8759 63.9067L-1.59676 21.4778L15.4092 0Z" fill="#6DCBFF" fill-opacity="0.5"/>
<path d="M183.312 191.208C189.735 191.208 194.714 198.106 193.947 205.942L177.628 372.688C176.98 379.302 172.414 384.279 166.992 384.279H66.0075C60.5863 384.279 56.0197 379.302 55.3724 372.688L39.0534 205.942C38.2865 198.106 43.2654 191.208 49.6885 191.208H183.312Z" fill="#D9D9D9"/>
<path d="M183.312 191.208C189.735 191.208 194.714 198.106 193.947 205.942L177.628 372.688C176.98 379.302 172.414 384.279 166.992 384.279H66.0075C60.5863 384.279 56.0197 379.302 55.3724 372.688L39.0534 205.942C38.2865 198.106 43.2654 191.208 49.6885 191.208H183.312Z" fill="#6DCBFF" fill-opacity="0.2"/>
<path d="M183.312 191.208C189.735 191.208 194.714 198.106 193.947 205.942L177.628 372.688C176.98 379.302 172.414 384.279 166.992 384.279H66.0075C60.5863 384.279 56.0197 379.302 55.3724 372.688L39.0534 205.942C38.2865 198.106 43.2654 191.208 49.6885 191.208H183.312Z" fill="url(#paint1_linear_2_115)" fill-opacity="0.2"/>
<path d="M183.312 191.208C189.735 191.208 194.714 198.106 193.947 205.942L177.628 372.688C176.98 379.302 172.414 384.279 166.992 384.279H66.0075C60.5863 384.279 56.0197 379.302 55.3724 372.688L39.0534 205.942C38.2865 198.106 43.2654 191.208 49.6885 191.208H183.312Z" fill="#D9D9D9"/>
<path d="M183.312 191.208C189.735 191.208 194.714 198.106 193.947 205.942L177.628 372.688C176.98 379.302 172.414 384.279 166.992 384.279H66.0075C60.5863 384.279 56.0197 379.302 55.3724 372.688L39.0534 205.942C38.2865 198.106 43.2654 191.208 49.6885 191.208H183.312Z" fill="#6DCBFF" fill-opacity="0.2"/>
<path d="M183.312 191.208C189.735 191.208 194.714 198.106 193.947 205.942L177.628 372.688C176.98 379.302 172.414 384.279 166.992 384.279H66.0075C60.5863 384.279 56.0197 379.302 55.3724 372.688L39.0534 205.942C38.2865 198.106 43.2654 191.208 49.6885 191.208H183.312Z" fill="url(#paint2_linear_2_115)" fill-opacity="0.2"/>
<g filter="url(#filter0_d_2_115)">
<path d="M186.413 283.856L182.634 324.533L50.3658 324.533L45.642 283.856L186.413 283.856Z" fill="#3C5266"/>
</g>
<rect x="30.9979" y="174.725" width="170.059" height="31.346" rx="8" fill="#3C5266"/>
<rect x="30.9979" y="174.725" width="170.059" height="31.346" rx="8" fill="url(#paint3_linear_2_115)" fill-opacity="0.2"/>
<g filter="url(#filter1_i_2_115)">
<path d="M63.4 300.976H69.88V302.656H63.4V310H61.312V293.464H71.056L70.816 295.192H63.4V300.976ZM85.2786 305.416C85.2786 306.376 85.0386 307.224 84.5586 307.96C84.0786 308.68 83.3826 309.248 82.4706 309.664C81.5586 310.064 80.4786 310.264 79.2306 310.264C78.0306 310.264 76.9346 310.088 75.9426 309.736C74.9666 309.368 74.1266 308.848 73.4226 308.176L74.6706 306.76C75.2786 307.336 75.9506 307.776 76.6866 308.08C77.4386 308.384 78.2946 308.536 79.2546 308.536C80.3426 308.536 81.2546 308.272 81.9906 307.744C82.7266 307.216 83.0946 306.456 83.0946 305.464C83.0946 304.904 82.9906 304.44 82.7826 304.072C82.5746 303.704 82.2066 303.376 81.6786 303.088C81.1666 302.8 80.4386 302.52 79.4946 302.248C77.7026 301.72 76.3666 301.104 75.4866 300.4C74.6066 299.68 74.1666 298.704 74.1666 297.472C74.1666 296.656 74.3906 295.92 74.8386 295.264C75.2866 294.608 75.9186 294.104 76.7346 293.752C77.5506 293.384 78.4786 293.2 79.5186 293.2C80.6066 293.2 81.5746 293.36 82.4226 293.68C83.2866 294 84.0786 294.472 84.7986 295.096L83.5506 296.44C82.4146 295.448 81.0946 294.952 79.5906 294.952C78.6306 294.952 77.8386 295.16 77.2146 295.576C76.5906 295.992 76.2786 296.6 76.2786 297.4C76.2786 297.88 76.4066 298.288 76.6626 298.624C76.9186 298.96 77.3426 299.272 77.9346 299.56C78.5266 299.848 79.3586 300.144 80.4306 300.448C81.9826 300.896 83.1746 301.48 84.0066 302.2C84.8546 302.92 85.2786 303.992 85.2786 305.416ZM100.461 310H98.4453L97.9413 301.36C97.8453 299.84 97.7973 297.848 97.7973 295.384L95.0133 307.024H92.9253L89.9492 295.384C89.9813 295.96 89.9973 296.728 89.9973 297.688C89.9973 299.16 89.9653 300.384 89.9013 301.36L89.4693 310H87.5013L88.4373 293.464H91.3413L94.0293 304.792L96.5973 293.464H99.5253L100.461 310ZM108.396 297.088C110.14 297.088 111.476 297.68 112.404 298.864C113.348 300.032 113.82 301.632 113.82 303.664C113.82 305.648 113.34 307.248 112.38 308.464C111.436 309.664 110.1 310.264 108.372 310.264C106.628 310.264 105.284 309.68 104.34 308.512C103.396 307.328 102.924 305.72 102.924 303.688C102.924 301.688 103.396 300.088 104.34 298.888C105.3 297.688 106.652 297.088 108.396 297.088ZM108.396 298.744C107.292 298.744 106.468 299.152 105.924 299.968C105.38 300.784 105.108 302.024 105.108 303.688C105.108 305.352 105.372 306.592 105.9 307.408C106.444 308.208 107.268 308.608 108.372 308.608C109.476 308.608 110.292 308.208 110.82 307.408C111.364 306.592 111.636 305.344 111.636 303.664C111.636 302 111.364 300.768 110.82 299.968C110.292 299.152 109.484 298.744 108.396 298.744ZM122.787 297.088C124.531 297.088 125.867 297.68 126.795 298.864C127.739 300.032 128.211 301.632 128.211 303.664C128.211 305.648 127.731 307.248 126.771 308.464C125.827 309.664 124.491 310.264 122.763 310.264C121.019 310.264 119.675 309.68 118.73 308.512C117.787 307.328 117.315 305.72 117.315 303.688C117.315 301.688 117.787 300.088 118.73 298.888C119.691 297.688 121.043 297.088 122.787 297.088ZM122.787 298.744C121.683 298.744 120.859 299.152 120.315 299.968C119.771 300.784 119.499 302.024 119.499 303.688C119.499 305.352 119.763 306.592 120.291 307.408C120.835 308.208 121.659 308.608 122.763 308.608C123.867 308.608 124.683 308.208 125.211 307.408C125.755 306.592 126.027 305.344 126.027 303.664C126.027 302 125.755 300.768 125.211 299.968C124.683 299.152 123.875 298.744 122.787 298.744ZM142.409 309.352C141.977 309.64 141.449 309.864 140.825 310.024C140.217 310.184 139.609 310.264 139.001 310.264C137.673 310.264 136.633 309.92 135.881 309.232C135.129 308.528 134.753 307.608 134.753 306.472V298.936H131.849V297.352H134.753V294.496L136.769 294.256V297.352H141.161L140.897 298.936H136.769V306.448C136.769 307.168 136.961 307.704 137.345 308.056C137.729 308.408 138.345 308.584 139.193 308.584C140.057 308.584 140.865 308.384 141.617 307.984L142.409 309.352ZM148.76 299.104C149.256 298.464 149.864 297.968 150.584 297.616C151.304 297.264 152.048 297.088 152.816 297.088C155.184 297.088 156.368 298.336 156.368 300.832V310H154.352V300.856C154.352 300.104 154.176 299.56 153.824 299.224C153.472 298.872 152.912 298.696 152.144 298.696C151.488 298.696 150.856 298.904 150.248 299.32C149.64 299.736 149.144 300.224 148.76 300.784V310H146.744V292.288L148.76 292.072V299.104ZM167.23 310.072C166.734 311.528 166.054 312.688 165.19 313.552C164.326 314.416 163.118 314.928 161.566 315.088L161.278 313.48C162.126 313.336 162.798 313.112 163.294 312.808C163.806 312.52 164.206 312.152 164.494 311.704C164.782 311.272 165.046 310.704 165.286 310H164.614L160.222 297.352H162.358L165.982 308.464L169.558 297.352H171.646L167.23 310.072Z" fill="#D9D9D9"/>
<path d="M63.4 300.976H69.88V302.656H63.4V310H61.312V293.464H71.056L70.816 295.192H63.4V300.976ZM85.2786 305.416C85.2786 306.376 85.0386 307.224 84.5586 307.96C84.0786 308.68 83.3826 309.248 82.4706 309.664C81.5586 310.064 80.4786 310.264 79.2306 310.264C78.0306 310.264 76.9346 310.088 75.9426 309.736C74.9666 309.368 74.1266 308.848 73.4226 308.176L74.6706 306.76C75.2786 307.336 75.9506 307.776 76.6866 308.08C77.4386 308.384 78.2946 308.536 79.2546 308.536C80.3426 308.536 81.2546 308.272 81.9906 307.744C82.7266 307.216 83.0946 306.456 83.0946 305.464C83.0946 304.904 82.9906 304.44 82.7826 304.072C82.5746 303.704 82.2066 303.376 81.6786 303.088C81.1666 302.8 80.4386 302.52 79.4946 302.248C77.7026 301.72 76.3666 301.104 75.4866 300.4C74.6066 299.68 74.1666 298.704 74.1666 297.472C74.1666 296.656 74.3906 295.92 74.8386 295.264C75.2866 294.608 75.9186 294.104 76.7346 293.752C77.5506 293.384 78.4786 293.2 79.5186 293.2C80.6066 293.2 81.5746 293.36 82.4226 293.68C83.2866 294 84.0786 294.472 84.7986 295.096L83.5506 296.44C82.4146 295.448 81.0946 294.952 79.5906 294.952C78.6306 294.952 77.8386 295.16 77.2146 295.576C76.5906 295.992 76.2786 296.6 76.2786 297.4C76.2786 297.88 76.4066 298.288 76.6626 298.624C76.9186 298.96 77.3426 299.272 77.9346 299.56C78.5266 299.848 79.3586 300.144 80.4306 300.448C81.9826 300.896 83.1746 301.48 84.0066 302.2C84.8546 302.92 85.2786 303.992 85.2786 305.416ZM100.461 310H98.4453L97.9413 301.36C97.8453 299.84 97.7973 297.848 97.7973 295.384L95.0133 307.024H92.9253L89.9492 295.384C89.9813 295.96 89.9973 296.728 89.9973 297.688C89.9973 299.16 89.9653 300.384 89.9013 301.36L89.4693 310H87.5013L88.4373 293.464H91.3413L94.0293 304.792L96.5973 293.464H99.5253L100.461 310ZM108.396 297.088C110.14 297.088 111.476 297.68 112.404 298.864C113.348 300.032 113.82 301.632 113.82 303.664C113.82 305.648 113.34 307.248 112.38 308.464C111.436 309.664 110.1 310.264 108.372 310.264C106.628 310.264 105.284 309.68 104.34 308.512C103.396 307.328 102.924 305.72 102.924 303.688C102.924 301.688 103.396 300.088 104.34 298.888C105.3 297.688 106.652 297.088 108.396 297.088ZM108.396 298.744C107.292 298.744 106.468 299.152 105.924 299.968C105.38 300.784 105.108 302.024 105.108 303.688C105.108 305.352 105.372 306.592 105.9 307.408C106.444 308.208 107.268 308.608 108.372 308.608C109.476 308.608 110.292 308.208 110.82 307.408C111.364 306.592 111.636 305.344 111.636 303.664C111.636 302 111.364 300.768 110.82 299.968C110.292 299.152 109.484 298.744 108.396 298.744ZM122.787 297.088C124.531 297.088 125.867 297.68 126.795 298.864C127.739 300.032 128.211 301.632 128.211 303.664C128.211 305.648 127.731 307.248 126.771 308.464C125.827 309.664 124.491 310.264 122.763 310.264C121.019 310.264 119.675 309.68 118.73 308.512C117.787 307.328 117.315 305.72 117.315 303.688C117.315 301.688 117.787 300.088 118.73 298.888C119.691 297.688 121.043 297.088 122.787 297.088ZM122.787 298.744C121.683 298.744 120.859 299.152 120.315 299.968C119.771 300.784 119.499 302.024 119.499 303.688C119.499 305.352 119.763 306.592 120.291 307.408C120.835 308.208 121.659 308.608 122.763 308.608C123.867 308.608 124.683 308.208 125.211 307.408C125.755 306.592 126.027 305.344 126.027 303.664C126.027 302 125.755 300.768 125.211 299.968C124.683 299.152 123.875 298.744 122.787 298.744ZM142.409 309.352C141.977 309.64 141.449 309.864 140.825 310.024C140.217 310.184 139.609 310.264 139.001 310.264C137.673 310.264 136.633 309.92 135.881 309.232C135.129 308.528 134.753 307.608 134.753 306.472V298.936H131.849V297.352H134.753V294.496L136.769 294.256V297.352H141.161L140.897 298.936H136.769V306.448C136.769 307.168 136.961 307.704 137.345 308.056C137.729 308.408 138.345 308.584 139.193 308.584C140.057 308.584 140.865 308.384 141.617 307.984L142.409 309.352ZM148.76 299.104C149.256 298.464 149.864 297.968 150.584 297.616C151.304 297.264 152.048 297.088 152.816 297.088C155.184 297.088 156.368 298.336 156.368 300.832V310H154.352V300.856C154.352 300.104 154.176 299.56 153.824 299.224C153.472 298.872 152.912 298.696 152.144 298.696C151.488 298.696 150.856 298.904 150.248 299.32C149.64 299.736 149.144 300.224 148.76 300.784V310H146.744V292.288L148.76 292.072V299.104ZM167.23 310.072C166.734 311.528 166.054 312.688 165.19 313.552C164.326 314.416 163.118 314.928 161.566 315.088L161.278 313.48C162.126 313.336 162.798 313.112 163.294 312.808C163.806 312.52 164.206 312.152 164.494 311.704C164.782 311.272 165.046 310.704 165.286 310H164.614L160.222 297.352H162.358L165.982 308.464L169.558 297.352H171.646L167.23 310.072Z" fill="url(#paint4_linear_2_115)" fill-opacity="0.4"/>
</g>
</g>
<defs>
<filter id="filter0_d_2_115" x="40.642" y="279.856" width="150.771" height="50.6774" filterUnits="userSpaceOnUse" color-interpolation-filters="sRGB">
<feFlood flood-opacity="0" result="BackgroundImageFix"/>
<feColorMatrix in="SourceAlpha" type="matrix" values="0 0 0 0 0 0 0 0 0 0 0 0 0 0 0 0 0 0 127 0" result="hardAlpha"/>
<feOffset dy="1"/>
<feGaussianBlur stdDeviation="2.5"/>
<feComposite in2="hardAlpha" operator="out"/>
<feColorMatrix type="matrix" values="0 0 0 0 0 0 0 0 0 0 0 0 0 0 0 0 0 0 0.25 0"/>
<feBlend mode="normal" in2="BackgroundImageFix" result="effect1_dropShadow_2_115"/>
<feBlend mode="normal" in="SourceGraphic" in2="effect1_dropShadow_2_115" result="shape"/>
</filter>
<filter id="filter1_i_2_115" x="61.312" y="292.072" width="110.334" height="24.016" filterUnits="userSpaceOnUse" color-interpolation-filters="sRGB">
<feFlood flood-opacity="0" result="BackgroundImageFix"/>
<feBlend mode="normal" in="SourceGraphic" in2="BackgroundImageFix" result="shape"/>
<feColorMatrix in="SourceAlpha" type="matrix" values="0 0 0 0 0 0 0 0 0 0 0 0 0 0 0 0 0 0 127 0" result="hardAlpha"/>
<feOffset dy="1"/>
<feGaussianBlur stdDeviation="1.5"/>
<feComposite in2="hardAlpha" operator="arithmetic" k2="-1" k3="1"/>
<feColorMatrix type="matrix" values="0 0 0 0 0 0 0 0 0 0 0 0 0 0 0 0 0 0 0.25 0"/>
<feBlend mode="normal" in2="shape" result="effect1_innerShadow_2_115"/>
</filter>
<linearGradient id="paint0_linear_2_115" x1="58.8037" y1="-15.7068" x2="-5.55057" y2="11.6042" gradientUnits="userSpaceOnUse">
<stop/>
<stop offset="1" stop-color="#6DCBFF" stop-opacity="0"/>
</linearGradient>
<linearGradient id="paint1_linear_2_115" x1="195.26" y1="148.742" x2="50.9446" y2="146.484" gradientUnits="userSpaceOnUse">
<stop/>
<stop offset="1" stop-color="#6DCBFF" stop-opacity="0"/>
</linearGradient>
<linearGradient id="paint2_linear_2_115" x1="195.26" y1="148.742" x2="50.9446" y2="146.484" gradientUnits="userSpaceOnUse">
<stop/>
<stop offset="1" stop-color="#6DCBFF" stop-opacity="0"/>
</linearGradient>
<linearGradient id="paint3_linear_2_115" x1="173.922" y1="185.009" x2="167.86" y2="215.941" gradientUnits="userSpaceOnUse">
<stop/>
<stop offset="1" stop-color="#6DCBFF" stop-opacity="0"/>
</linearGradient>
<linearGradient id="paint4_linear_2_115" x1="58" y1="302" x2="174" y2="302" gradientUnits="userSpaceOnUse">
<stop stop-color="#6DCBFF" stop-opacity="0"/>
<stop offset="0.78125" stop-color="#57C3FF"/>
<stop offset="1" stop-color="#58C3FF" stop-opacity="0.966667"/>
</linearGradient>
<clipPath id="clip0_2_115">
<rect width="233" height="395" fill="white"/>
</clipPath>
</defs>
</svg>
