<svg width="440" height="384" viewBox="0 0 440 384" fill="none" xmlns="http://www.w3.org/2000/svg">
<g clip-path="url(#clip0_4_127)">
<path d="M181.004 0L95.1923 50.5036C92.7496 51.9412 91.25 54.5639 91.25 57.3982V185.174H115.342V70.9439C115.342 68.0058 116.952 65.3041 119.537 63.9067L198.009 21.4778L181.004 0Z" fill="#D9D9D9"/>
<path d="M181.004 0L95.1923 50.5036C92.7496 51.9412 91.25 54.5639 91.25 57.3982V185.174H115.342V70.9439C115.342 68.0058 116.952 65.3041 119.537 63.9067L198.009 21.4778L181.004 0Z" fill="url(#paint0_linear_4_127)" fill-opacity="0.2"/>
<path d="M181.004 0L95.1923 50.5036C92.7496 51.9412 91.25 54.5639 91.25 57.3982V185.174H115.342V70.9439C115.342 68.0058 116.952 65.3041 119.537 63.9067L198.009 21.4778L181.004 0Z" fill="#6DCBFF" fill-opacity="0.5"/>
<path d="M180.562 186.208C186.985 186.208 191.964 193.106 191.197 200.942L174.878 367.688C174.23 374.302 169.664 379.279 164.242 379.279H63.2575C57.8363 379.279 53.2697 374.302 52.6224 367.688L36.3034 200.942C35.5365 193.106 40.5154 186.208 46.9385 186.208H180.562Z" fill="#D9D9D9"/>
<path d="M180.562 186.208C186.985 186.208 191.964 193.106 191.197 200.942L174.878 367.688C174.23 374.302 169.664 379.279 164.242 379.279H63.2575C57.8363 379.279 53.2697 374.302 52.6224 367.688L36.3034 200.942C35.5365 193.106 40.5154 186.208 46.9385 186.208H180.562Z" fill="#6DCBFF" fill-opacity="0.2"/>
<path d="M180.562 186.208C186.985 186.208 191.964 193.106 191.197 200.942L174.878 367.688C174.23 374.302 169.664 379.279 164.242 379.279H63.2575C57.8363 379.279 53.2697 374.302 52.6224 367.688L36.3034 200.942C35.5365 193.106 40.5154 186.208 46.9385 186.208H180.562Z" fill="url(#paint1_linear_4_127)" fill-opacity="0.2"/>
<path d="M180.562 186.208C186.985 186.208 191.964 193.106 191.197 200.942L174.878 367.688C174.23 374.302 169.664 379.279 164.242 379.279H63.2575C57.8363 379.279 53.2697 374.302 52.6224 367.688L36.3034 200.942C35.5365 193.106 40.5154 186.208 46.9385 186.208H180.562Z" fill="#D9D9D9"/>
<path d="M180.562 186.208C186.985 186.208 191.964 193.106 191.197 200.942L174.878 367.688C174.23 374.302 169.664 379.279 164.242 379.279H63.2575C57.8363 379.279 53.2697 374.302 52.6224 367.688L36.3034 200.942C35.5365 193.106 40.5154 186.208 46.9385 186.208H180.562Z" fill="#6DCBFF" fill-opacity="0.2"/>
<path d="M180.562 186.208C186.985 186.208 191.964 193.106 191.197 200.942L174.878 367.688C174.23 374.302 169.664 379.279 164.242 379.279H63.2575C57.8363 379.279 53.2697 374.302 52.6224 367.688L36.3034 200.942C35.5365 193.106 40.5154 186.208 46.9385 186.208H180.562Z" fill="url(#paint2_linear_4_127)" fill-opacity="0.2"/>
<g filter="url(#filter0_d_4_127)">
<path d="M183.663 278.856L179.884 319.533L47.6158 319.533L42.892 278.856L183.663 278.856Z" fill="#3C5266"/>
</g>
<rect x="28.248" y="169.725" width="170.059" height="31.346" rx="8" fill="#3C5266"/>
<rect x="28.248" y="169.725" width="170.059" height="31.346" rx="8" fill="url(#paint3_linear_4_127)" fill-opacity="0.2"/>
</g>
<path d="M296.77 340.89C296.77 349.29 294.67 356.71 290.47 363.15C286.27 369.45 280.18 374.42 272.2 378.06C264.22 381.56 254.77 383.31 243.85 383.31C233.35 383.31 223.76 381.77 215.08 378.69C206.54 375.47 199.19 370.92 193.03 365.04L203.95 352.65C209.27 357.69 215.15 361.54 221.59 364.2C228.17 366.86 235.66 368.19 244.06 368.19C253.58 368.19 261.56 365.88 268 361.26C274.44 356.64 277.66 349.99 277.66 341.31C277.66 336.41 276.75 332.35 274.93 329.13C273.11 325.91 269.89 323.04 265.27 320.52C260.79 318 254.42 315.55 246.16 313.17C230.48 308.55 218.79 303.16 211.09 297C203.39 290.7 199.54 282.16 199.54 271.38C199.54 264.24 201.5 257.8 205.42 252.06C209.34 246.32 214.87 241.91 222.01 238.83C229.15 235.61 237.27 234 246.37 234C255.89 234 264.36 235.4 271.78 238.2C279.34 241 286.27 245.13 292.57 250.59L281.65 262.35C271.71 253.67 260.16 249.33 247 249.33C238.6 249.33 231.67 251.15 226.21 254.79C220.75 258.43 218.02 263.75 218.02 270.75C218.02 274.95 219.14 278.52 221.38 281.46C223.62 284.4 227.33 287.13 232.51 289.65C237.69 292.17 244.97 294.76 254.35 297.42C267.93 301.34 278.36 306.45 285.64 312.75C293.06 319.05 296.77 328.43 296.77 340.89ZM429.618 381H411.978L407.568 305.4C406.728 292.1 406.308 274.67 406.308 253.11L381.948 354.96H363.678L337.638 253.11C337.918 258.15 338.058 264.87 338.058 273.27C338.058 286.15 337.778 296.86 337.218 305.4L333.438 381H316.218L324.408 236.31H349.818L373.338 335.43L395.808 236.31H421.428L429.618 381Z" fill="#3C5266"/>
<path d="M296.77 340.89C296.77 349.29 294.67 356.71 290.47 363.15C286.27 369.45 280.18 374.42 272.2 378.06C264.22 381.56 254.77 383.31 243.85 383.31C233.35 383.31 223.76 381.77 215.08 378.69C206.54 375.47 199.19 370.92 193.03 365.04L203.95 352.65C209.27 357.69 215.15 361.54 221.59 364.2C228.17 366.86 235.66 368.19 244.06 368.19C253.58 368.19 261.56 365.88 268 361.26C274.44 356.64 277.66 349.99 277.66 341.31C277.66 336.41 276.75 332.35 274.93 329.13C273.11 325.91 269.89 323.04 265.27 320.52C260.79 318 254.42 315.55 246.16 313.17C230.48 308.55 218.79 303.16 211.09 297C203.39 290.7 199.54 282.16 199.54 271.38C199.54 264.24 201.5 257.8 205.42 252.06C209.34 246.32 214.87 241.91 222.01 238.83C229.15 235.61 237.27 234 246.37 234C255.89 234 264.36 235.4 271.78 238.2C279.34 241 286.27 245.13 292.57 250.59L281.65 262.35C271.71 253.67 260.16 249.33 247 249.33C238.6 249.33 231.67 251.15 226.21 254.79C220.75 258.43 218.02 263.75 218.02 270.75C218.02 274.95 219.14 278.52 221.38 281.46C223.62 284.4 227.33 287.13 232.51 289.65C237.69 292.17 244.97 294.76 254.35 297.42C267.93 301.34 278.36 306.45 285.64 312.75C293.06 319.05 296.77 328.43 296.77 340.89ZM429.618 381H411.978L407.568 305.4C406.728 292.1 406.308 274.67 406.308 253.11L381.948 354.96H363.678L337.638 253.11C337.918 258.15 338.058 264.87 338.058 273.27C338.058 286.15 337.778 296.86 337.218 305.4L333.438 381H316.218L324.408 236.31H349.818L373.338 335.43L395.808 236.31H421.428L429.618 381Z" fill="url(#paint4_linear_4_127)" fill-opacity="0.4"/>
<defs>
<filter id="filter0_d_4_127" x="37.892" y="274.856" width="150.771" height="50.6775" filterUnits="userSpaceOnUse" color-interpolation-filters="sRGB">
<feFlood flood-opacity="0" result="BackgroundImageFix"/>
<feColorMatrix in="SourceAlpha" type="matrix" values="0 0 0 0 0 0 0 0 0 0 0 0 0 0 0 0 0 0 127 0" result="hardAlpha"/>
<feOffset dy="1"/>
<feGaussianBlur stdDeviation="2.5"/>
<feComposite in2="hardAlpha" operator="out"/>
<feColorMatrix type="matrix" values="0 0 0 0 0 0 0 0 0 0 0 0 0 0 0 0 0 0 0.25 0"/>
<feBlend mode="normal" in2="BackgroundImageFix" result="effect1_dropShadow_4_127"/>
<feBlend mode="normal" in="SourceGraphic" in2="effect1_dropShadow_4_127" result="shape"/>
</filter>
<linearGradient id="paint0_linear_4_127" x1="137.609" y1="-15.7068" x2="201.963" y2="11.6042" gradientUnits="userSpaceOnUse">
<stop/>
<stop offset="1" stop-color="#6DCBFF" stop-opacity="0"/>
</linearGradient>
<linearGradient id="paint1_linear_4_127" x1="192.51" y1="143.742" x2="48.1946" y2="141.484" gradientUnits="userSpaceOnUse">
<stop/>
<stop offset="1" stop-color="#6DCBFF" stop-opacity="0"/>
</linearGradient>
<linearGradient id="paint2_linear_4_127" x1="192.51" y1="143.742" x2="48.1946" y2="141.484" gradientUnits="userSpaceOnUse">
<stop/>
<stop offset="1" stop-color="#6DCBFF" stop-opacity="0"/>
</linearGradient>
<linearGradient id="paint3_linear_4_127" x1="171.173" y1="180.009" x2="165.11" y2="210.941" gradientUnits="userSpaceOnUse">
<stop/>
<stop offset="1" stop-color="#6DCBFF" stop-opacity="0"/>
</linearGradient>
<linearGradient id="paint4_linear_4_127" x1="184" y1="269.025" x2="440" y2="269.025" gradientUnits="userSpaceOnUse">
<stop stop-color="#6DCBFF" stop-opacity="0"/>
<stop offset="0.729167" stop-color="#57C3FF"/>
</linearGradient>
<clipPath id="clip0_4_127">
<rect width="227.5" height="381" fill="white"/>
</clipPath>
</defs>
</svg>
